<?xml version="1.0" standalone="no"?>
<!DOCTYPE svg PUBLIC "-//W3C//DTD SVG 20010904//EN"
 "http://www.w3.org/TR/2001/REC-SVG-20010904/DTD/svg10.dtd">
<svg version="1.0" xmlns="http://www.w3.org/2000/svg"
 width="1080.000000pt" height="1046.000000pt" viewBox="0 0 1080.000000 1046.000000"
 preserveAspectRatio="xMidYMid meet">

<g transform="translate(0.000000,1046.000000) scale(0.100000,-0.100000)"
fill="#000000" stroke="none">
<path d="M0 5230 l0 -5230 5400 0 5400 0 0 5230 0 5230 -5400 0 -5400 0 0
-5230z m5659 3724 c194 -95 371 -361 485 -729 62 -200 122 -494 128 -630 l3
-60 -90 -7 c-464 -33 -791 -32 -1305 7 -188 14 -220 19 -220 37 0 79 82 459
133 618 116 357 296 642 472 745 133 78 262 84 394 19z m-1992 -1289 c514
-194 1442 -296 2308 -255 308 15 342 19 939 125 174 31 289 57 352 80 l94 33
28 -41 c100 -149 155 -415 122 -593 -40 -222 -234 -406 -582 -554 -93 -39 -98
-40 -122 -25 -14 9 -108 110 -210 225 -219 245 -291 314 -371 357 -95 50 -144
64 -245 70 -78 4 -111 2 -179 -16 -89 -23 -194 -72 -271 -126 l-47 -33 -44 29
c-66 45 -168 95 -245 121 -91 30 -261 32 -344 4 -153 -52 -231 -118 -489 -416
-79 -91 -158 -177 -176 -193 l-33 -27 -68 26 c-275 103 -530 287 -612 442 -92
173 -80 450 29 665 20 38 86 127 95 127 2 0 34 -11 71 -25z"/>
</g>
</svg>
